<?xml version="1.0" standalone="no"?>
<!DOCTYPE svg PUBLIC "-//W3C//DTD SVG 20010904//EN"
 "http://www.w3.org/TR/2001/REC-SVG-20010904/DTD/svg10.dtd">
<svg version="1.0" xmlns="http://www.w3.org/2000/svg"
 width="1244.000000pt" height="884.000000pt" viewBox="0 0 1244.000000 884.000000"
 preserveAspectRatio="xMidYMid meet">
<metadata>
Created by potrace 1.16, written by Peter Selinger 2001-2019
</metadata>
<g transform="translate(0.000000,884.000000) scale(0.100000,-0.100000)"
fill="#000000" stroke="none">
<path d="M10913 8778 c-410 -391 -736 -903 -1017 -1599 -143 -354 -294 -818
-397 -1214 -85 -330 -99 -396 -99 -471 0 -109 25 -135 163 -170 116 -29 141
-81 112 -236 -72 -397 -266 -987 -469 -1433 -74 -161 -107 -225 -118 -225 -7
0 -44 7 -83 15 -208 45 -686 118 -1040 159 -550 65 -910 86 -1565 93 -1012 11
-1873 -56 -2738 -213 -73 -13 -141 -24 -151 -24 -18 0 -34 28 -108 195 -113
252 -251 615 -343 900 -28 88 -57 178 -65 200 -23 67 -122 420 -165 590 -106
417 -160 721 -160 895 0 105 26 198 105 375 74 168 95 235 95 311 0 55 -27
141 -195 629 -48 138 -92 268 -100 290 -52 158 -246 698 -296 825 l-32 81 -46
-3 c-44 -3 -46 -5 -49 -35 -5 -54 60 -327 218 -913 40 -146 78 -287 85 -315 7
-27 22 -85 35 -128 21 -75 21 -80 4 -98 -35 -39 -61 -16 -91 81 -116 367 -379
1163 -422 1275 -18 49 -20 50 -64 53 -38 3 -46 0 -52 -17 -9 -30 41 -273 200
-966 25 -110 60 -261 77 -335 16 -74 32 -138 34 -142 7 -11 -8 -38 -28 -49
-31 -17 -55 14 -84 110 -14 47 -39 127 -54 176 -16 50 -40 131 -55 180 -15 50
-33 108 -40 130 -7 22 -25 81 -40 130 -14 50 -32 108 -40 130 -7 22 -34 108
-60 190 -49 157 -73 231 -107 328 -20 56 -21 57 -58 57 -58 0 -65 -16 -50
-108 6 -42 43 -230 82 -417 68 -334 82 -401 133 -640 14 -66 35 -167 47 -224
l21 -105 -23 -18 c-12 -10 -26 -18 -31 -18 -19 0 -39 51 -74 185 -20 77 -45
172 -55 210 -10 39 -31 115 -45 170 -15 55 -36 134 -47 175 -11 41 -24 93 -29
115 -5 22 -16 60 -24 85 -7 25 -25 90 -40 145 -47 174 -107 360 -119 367 -21
14 -63 8 -80 -11 -17 -18 -17 -26 3 -153 12 -73 28 -169 36 -213 8 -44 26
-145 40 -225 14 -80 32 -176 40 -215 8 -38 23 -117 34 -175 59 -314 113 -593
126 -650 8 -36 21 -103 30 -150 21 -106 34 -138 80 -188 34 -38 67 -65 255
-204 135 -101 200 -182 278 -349 73 -156 181 -474 267 -787 19 -70 41 -149 49
-177 24 -82 124 -494 140 -575 9 -41 25 -120 36 -175 34 -166 78 -421 100
-585 22 -164 40 -361 34 -371 -2 -3 -29 -11 -61 -18 -75 -17 -337 -92 -481
-138 l-112 -35 0 -989 0 -989 34 0 c19 0 70 11 113 24 717 225 1576 390 2504
481 481 47 765 59 1404 59 639 0 919 -12 1404 -59 933 -92 1864 -271 2525
-486 33 -10 74 -19 93 -19 l33 0 0 989 0 988 -42 15 c-98 35 -383 119 -483
142 l-50 12 3 54 c1 30 9 98 17 150 8 52 21 142 29 200 54 369 126 754 203
1085 27 117 226 871 480 1815 34 126 55 208 68 255 7 28 22 85 34 128 12 42
30 110 40 150 11 39 117 435 235 879 119 444 216 814 216 823 0 9 -9 15 -26
15 -18 0 -45 -19 -91 -62z m92 30 c-3 -7 -100 -368 -216 -803 -116 -434 -219
-824 -231 -865 -11 -41 -26 -97 -33 -125 -7 -27 -22 -85 -34 -127 -12 -43 -30
-111 -40 -150 -11 -40 -26 -98 -34 -128 -514 -1912 -522 -1944 -632 -2580 -50
-289 -108 -699 -103 -737 3 -24 9 -29 53 -39 95 -22 383 -106 483 -142 l42
-15 0 -968 c0 -801 -2 -969 -13 -969 -8 0 -40 9 -73 19 -661 215 -1592 394
-2525 486 -490 48 -763 59 -1424 59 -556 0 -681 -3 -952 -22 -1136 -80 -2125
-252 -2976 -518 -43 -13 -85 -24 -93 -24 -12 0 -14 130 -14 969 l0 969 112 35
c144 46 406 121 481 138 32 7 60 16 63 20 7 12 -13 238 -37 414 -22 161 -65
418 -99 580 -11 55 -27 134 -36 175 -16 81 -116 493 -140 575 -8 28 -30 107
-49 177 -86 313 -194 631 -267 787 -78 167 -143 248 -278 349 -188 139 -221
166 -255 204 -46 50 -59 82 -80 188 -9 47 -22 114 -30 150 -12 57 -58 292
-126 650 -11 58 -25 128 -30 155 -27 134 -101 549 -117 655 -18 113 -18 121
-2 135 9 9 24 13 32 10 16 -7 77 -195 157 -495 17 -63 40 -146 51 -185 11 -38
33 -124 50 -190 17 -66 40 -151 50 -190 10 -38 35 -133 55 -210 20 -77 43
-150 51 -162 29 -45 115 -17 117 37 0 14 -12 81 -27 150 -81 377 -211 1002
-241 1165 -25 134 -23 155 15 155 21 0 48 -70 145 -385 26 -82 53 -168 60
-190 8 -22 26 -80 40 -130 15 -49 33 -108 40 -130 7 -22 25 -78 39 -125 31
-105 103 -340 122 -399 8 -24 21 -53 31 -63 22 -24 68 -23 94 3 25 25 24 34
-20 224 -118 509 -226 992 -252 1123 -11 56 -22 109 -25 116 -3 7 2 21 11 30
24 23 45 8 66 -50 42 -110 306 -907 422 -1274 11 -36 27 -73 35 -82 19 -23 70
-23 94 -1 24 22 23 54 -7 157 -14 47 -29 103 -34 123 -5 21 -50 191 -100 378
-120 445 -192 738 -194 789 -2 37 0 41 24 44 24 3 28 -3 58 -78 50 -127 244
-667 296 -825 8 -22 52 -152 100 -290 149 -431 195 -575 195 -609 0 -55 -26
-136 -95 -291 -37 -82 -75 -183 -86 -224 -48 -186 -6 -507 141 -1086 43 -170
142 -523 165 -590 8 -22 37 -112 65 -200 134 -417 413 -1105 448 -1105 4 0 68
11 142 25 882 162 1763 233 2764 222 752 -8 1269 -46 1931 -142 151 -21 217
-32 475 -75 36 -6 121 -22 189 -36 68 -13 125 -23 127 -21 6 6 107 223 136
292 231 551 362 955 439 1350 22 118 24 174 5 218 -19 47 -43 63 -116 82 -90
23 -128 43 -145 76 -31 58 -21 116 84 524 170 656 414 1317 659 1785 207 395
414 683 697 968 116 117 140 137 130 110z"/>
<path d="M5547 3283 c-3 -5 -6 -89 -8 -188 l-4 -180 28 0 c26 0 30 6 52 69 13
37 35 86 49 107 37 56 89 68 314 76 197 7 199 6 163 -45 -10 -15 -83 -130
-161 -257 -78 -126 -153 -246 -165 -265 -174 -270 -355 -567 -353 -579 3 -14
56 -16 513 -13 281 2 514 7 518 11 9 9 70 341 64 347 -2 2 -18 7 -35 10 -24 5
-32 3 -32 -8 0 -27 -72 -163 -103 -196 -51 -53 -131 -72 -333 -79 -186 -6
-249 -1 -240 22 5 14 225 372 530 862 99 160 154 257 150 267 -5 14 -49 15
-425 9 -420 -6 -420 -6 -449 15 -29 22 -65 29 -73 15z"/>
<path d="M6822 3123 c-27 -197 -27 -199 -6 -207 32 -12 41 -4 73 68 46 105 85
143 157 152 52 6 392 -10 401 -20 4 -4 -463 -631 -684 -919 -86 -111 -113
-153 -108 -167 4 -12 15 -20 28 -20 12 0 74 -5 137 -10 63 -5 247 -19 409 -30
162 -11 329 -23 372 -26 93 -8 80 -27 136 191 33 126 36 147 23 155 -33 21
-50 10 -82 -55 -76 -157 -122 -180 -353 -179 -136 1 -292 16 -317 30 -7 5 20
42 470 646 173 230 311 425 309 432 -7 18 -46 23 -402 46 -409 27 -456 33
-474 59 -8 13 -24 21 -40 21 l-26 0 -23 -167z"/>
<path d="M5100 3213 c-19 -1 -111 -10 -205 -18 -274 -25 -257 -21 -253 -58 3
-31 4 -32 60 -37 103 -9 106 -20 138 -385 11 -126 27 -313 36 -414 9 -100 13
-198 10 -216 -8 -42 -29 -59 -91 -77 -46 -13 -50 -17 -48 -42 1 -16 4 -31 7
-33 4 -4 412 29 524 43 42 5 43 7 40 37 -3 31 -5 32 -59 37 -97 9 -105 27
-129 290 -5 63 -19 219 -31 345 -11 127 -21 270 -22 318 -2 85 -1 90 25 112
15 13 45 26 67 30 48 8 54 15 45 50 -7 26 -16 28 -114 18z"/>
<path d="M3895 3070 c-135 -24 -343 -57 -408 -66 -54 -7 -60 -13 -51 -49 5
-22 11 -25 53 -25 56 0 88 -20 107 -66 13 -31 59 -301 131 -761 34 -223 34
-223 -89 -272 -28 -10 -35 -34 -20 -58 8 -13 13 -12 475 64 l108 17 -3 31 c-3
30 -4 30 -74 35 -76 5 -96 15 -113 58 -10 27 -61 310 -61 343 0 16 8 17 73 12
212 -16 425 136 457 326 29 175 -46 333 -189 400 -49 22 -71 26 -171 28 -77 1
-151 -4 -225 -17z m163 -85 c77 -33 125 -104 148 -221 27 -138 3 -237 -73
-304 -49 -42 -83 -53 -153 -48 -52 4 -45 -16 -85 243 -15 94 -31 194 -36 222
-13 64 -6 89 29 108 36 19 123 19 170 0z"/>
<path d="M8648 3063 c-21 -3 -39 -25 -93 -116 -76 -126 -362 -594 -466 -763
-98 -159 -127 -184 -214 -184 -44 0 -55 -10 -55 -50 0 -21 -3 -20 205 -56 83
-14 164 -27 181 -31 27 -4 32 -2 37 18 11 40 8 45 -31 57 -42 13 -82 45 -82
67 0 21 120 253 134 258 15 5 348 -51 357 -61 12 -12 51 -263 45 -288 -6 -22
-53 -44 -97 -44 -15 0 -34 -48 -23 -59 7 -7 438 -81 489 -83 48 -3 50 -2 53
25 3 24 -2 29 -40 46 -79 34 -96 69 -139 284 -35 178 -179 963 -179 977 0 10
-30 11 -82 3z m-79 -520 c17 -109 31 -204 31 -212 0 -10 -11 -12 -47 -7 -128
18 -233 40 -233 49 0 13 203 367 210 367 4 0 21 -89 39 -197z"/>
<path d="M5890 8601 c-288 -42 -567 -224 -710 -466 l-45 -74 -55 -1 c-134 -1
-337 -51 -484 -119 -158 -74 -341 -228 -443 -371 -81 -115 -147 -274 -172
-414 -6 -33 -11 -123 -11 -200 l0 -141 -48 -26 c-120 -66 -267 -209 -354 -344
-130 -199 -184 -433 -158 -685 36 -366 263 -682 619 -860 87 -43 255 -97 329
-106 55 -6 61 -9 66 -33 3 -14 17 -91 31 -171 28 -166 73 -384 112 -549 l26
-114 101 6 c56 4 187 13 291 21 391 30 519 37 878 45 475 11 935 -1 1342 -35
176 -15 349 -28 384 -28 l65 -1 23 90 c28 109 105 489 130 639 20 122 8 110
138 146 201 55 375 157 526 309 153 154 242 311 288 507 32 138 30 365 -4 500
-47 187 -155 367 -301 505 l-59 55 17 50 c52 156 63 370 28 543 -87 429 -443
766 -909 861 -127 26 -402 28 -517 4 -42 -8 -77 -14 -78 -12 -2 2 -18 25 -36
52 -126 186 -338 332 -575 396 -89 24 -333 35 -435 21z m415 -41 c240 -64 454
-213 581 -405 25 -38 42 -54 53 -51 142 42 409 49 572 16 468 -96 821 -430
910 -864 29 -140 23 -321 -16 -451 -14 -49 -28 -99 -31 -111 -5 -16 9 -34 57
-80 150 -142 256 -320 304 -508 34 -133 35 -324 4 -460 -46 -196 -135 -353
-288 -507 -151 -152 -325 -254 -526 -309 -130 -36 -118 -24 -138 -146 -25
-151 -102 -530 -130 -639 l-24 -90 -44 1 c-24 1 -186 13 -359 28 -786 65
-1439 57 -2536 -30 l-81 -7 -26 114 c-40 169 -92 426 -116 574 -29 174 -27
171 -98 180 -73 9 -240 63 -324 105 -168 84 -333 222 -432 361 -182 257 -238
571 -156 869 64 228 241 465 450 599 l84 55 -4 128 c-3 134 7 221 39 325 120
393 485 697 920 768 52 8 119 15 147 15 l53 0 53 83 c160 248 420 416 707 458
96 14 306 2 395 -21z"/>
<path d="M6970 7121 c0 -6 33 -43 73 -83 94 -94 146 -159 187 -231 31 -55 32
-60 25 -130 -7 -73 -19 -140 -31 -171 -6 -17 4 -17 177 -11 101 4 186 9 187
11 10 8 -65 98 -129 158 -46 43 -89 72 -120 83 -36 13 -50 24 -54 42 -4 14
-27 66 -52 117 -48 97 -116 185 -164 209 -31 17 -99 20 -99 6z"/>
<path d="M5630 6723 c-19 -2 -73 -11 -120 -19 -516 -92 -978 -482 -1030 -869
-10 -76 1 -196 14 -160 59 155 173 277 391 418 144 92 442 231 545 252 51 11
38 3 -85 -50 -289 -125 -558 -297 -703 -449 -98 -104 -127 -155 -127 -231 0
-73 20 -105 85 -137 60 -30 196 -30 325 1 96 23 311 91 383 122 24 11 45 19
48 19 9 0 35 -66 93 -233 67 -195 106 -339 117 -432 12 -107 66 -175 139 -175
40 1 413 171 447 204 55 53 46 128 -24 217 -84 106 -368 566 -368 595 0 6 21
20 48 33 74 36 260 149 337 206 92 68 180 158 205 210 44 92 12 193 -96 301
-133 133 -380 203 -624 177z m588 -354 c17 -6 34 -19 37 -29 21 -67 -159 -222
-440 -379 -110 -61 -110 -61 -125 -40 -40 57 -59 69 -103 69 -96 0 -241 -72
-280 -140 -18 -29 -18 -33 -2 -72 9 -24 12 -45 7 -50 -14 -14 -186 -76 -317
-114 -170 -50 -353 -60 -368 -20 -27 70 160 261 405 414 146 91 428 221 608
282 85 28 252 72 320 83 54 9 229 6 258 -4z"/>
<path d="M7375 6391 c-194 -7 -185 2 -185 -177 0 -195 -29 -328 -106 -486 -58
-119 -129 -214 -331 -440 -188 -212 -252 -323 -269 -466 -7 -69 13 -161 52
-232 30 -54 107 -135 122 -126 5 3 15 40 21 82 29 178 117 345 255 486 31 32
112 102 179 157 68 54 156 134 196 177 208 225 360 516 377 726 7 81 -19 212
-54 272 -21 36 -13 35 -257 27z"/>
<path d="M1945 2529 c-22 -5 -103 -20 -180 -34 -478 -89 -947 -197 -1480 -342
-132 -36 -250 -68 -262 -70 -17 -4 -23 -12 -23 -32 0 -23 11 -33 73 -69 118
-69 586 -357 787 -485 100 -64 295 -189 299 -193 6 -5 -210 -238 -484 -524
-211 -220 -558 -599 -648 -708 -15 -19 -27 -42 -27 -53 0 -34 24 -30 335 57
610 169 1443 346 2143 455 135 21 142 23 142 45 0 28 -21 49 -174 167 -65 51
-175 137 -245 192 l-126 101 -3 752 -2 752 -43 -1 c-23 -1 -60 -5 -82 -10z
m107 -761 l3 -752 127 -101 c69 -55 192 -152 272 -215 80 -63 146 -117 146
-121 0 -3 -64 -16 -142 -28 -465 -73 -978 -172 -1428 -276 -169 -39 -624 -153
-735 -185 -38 -11 -105 -29 -147 -40 -43 -11 -89 -25 -103 -30 -23 -9 -24 -8
-16 8 20 36 378 430 656 722 61 64 157 165 215 226 176 185 300 321 300 330 0
5 -28 26 -63 47 -34 21 -120 76 -192 122 -220 142 -702 440 -852 527 -40 23
-73 45 -73 49 0 4 10 9 23 12 12 2 130 34 262 70 533 145 1002 253 1480 342
77 14 158 29 180 34 22 5 50 9 62 10 l23 1 2 -752z"/>
<path d="M10379 1788 l0 -753 -62 -50 c-33 -27 -120 -95 -191 -149 -309 -234
-346 -277 -248 -290 305 -44 974 -166 1237 -226 22 -5 114 -26 205 -46 201
-44 644 -155 875 -220 94 -26 187 -49 208 -52 36 -4 37 -3 37 27 0 41 -168
232 -670 761 -366 386 -465 493 -468 505 -2 7 85 69 200 142 325 208 892 557
922 569 10 4 16 18 16 40 0 19 -2 34 -5 34 -3 0 -61 16 -128 35 -219 63 -259
74 -462 125 -527 132 -1328 300 -1435 300 l-30 0 -1 -752z m159 711 c462 -81
1207 -250 1622 -367 36 -10 111 -32 168 -47 56 -16 102 -32 102 -36 0 -3 -78
-53 -172 -110 -216 -130 -632 -388 -846 -526 l-162 -105 21 -26 c21 -27 174
-190 479 -512 304 -321 344 -364 513 -553 92 -104 167 -193 167 -198 0 -5 -11
-4 -25 1 -84 32 -795 215 -1065 274 -91 20 -183 41 -205 46 -220 50 -637 129
-985 185 -124 20 -243 40 -265 43 l-39 7 84 71 c47 39 144 116 216 170 71 54
158 122 191 149 l62 50 0 753 c1 517 4 752 11 752 6 0 64 -9 128 -21z"/>
</g>
</svg>
