<?xml version="1.0" standalone="no"?>
<!DOCTYPE svg PUBLIC "-//W3C//DTD SVG 20010904//EN"
 "http://www.w3.org/TR/2001/REC-SVG-20010904/DTD/svg10.dtd">
<svg version="1.0" xmlns="http://www.w3.org/2000/svg"
 width="1244.000000pt" height="884.000000pt" viewBox="0 0 1244.000000 884.000000"
 preserveAspectRatio="xMidYMid meet">
<metadata>
Created by potrace 1.16, written by Peter Selinger 2001-2019
</metadata>
<g transform="translate(0.000000,884.000000) scale(0.100000,-0.100000)"
fill="#000000" stroke="none">
<path d="M10875 8698 c-295 -298 -493 -576 -715 -1003 -236 -455 -475 -1109
-641 -1750 -105 -408 -115 -466 -84 -524 17 -33 55 -53 145 -76 129 -33 151
-92 111 -300 -77 -395 -208 -799 -439 -1350 -29 -69 -130 -286 -136 -292 -2
-2 -59 8 -127 21 -68 14 -153 30 -189 36 -258 43 -324 54 -475 75 -662 96
-1179 134 -1931 142 -1001 11 -1882 -60 -2764 -222 -74 -14 -138 -25 -142 -25
-35 0 -314 688 -448 1105 -28 88 -57 178 -65 200 -23 67 -122 420 -165 590
-147 579 -189 900 -141 1086 11 41 49 142 86 224 69 155 95 236 95 291 0 34
-46 178 -195 609 -48 138 -92 268 -100 290 -52 158 -246 698 -296 825 -30 75
-34 81 -58 78 -24 -3 -26 -7 -24 -44 2 -51 74 -344 194 -789 50 -187 95 -357
100 -378 5 -20 20 -76 34 -123 30 -103 31 -135 7 -157 -24 -22 -75 -22 -94 1
-8 9 -24 46 -35 82 -116 367 -380 1164 -422 1274 -21 58 -42 73 -66 50 -9 -9
-14 -23 -11 -30 3 -7 14 -60 25 -116 26 -131 134 -614 252 -1123 44 -190 45
-199 20 -224 -26 -26 -72 -27 -94 -3 -10 10 -23 39 -31 63 -19 59 -91 294
-122 399 -14 47 -32 103 -39 125 -7 22 -25 81 -40 130 -14 50 -32 108 -40 130
-7 22 -34 108 -60 190 -97 315 -124 385 -145 385 -38 0 -40 -21 -15 -155 30
-163 160 -788 241 -1165 15 -69 27 -136 27 -150 -2 -54 -88 -82 -117 -37 -8
12 -31 85 -51 162 -20 77 -45 172 -55 210 -10 39 -33 124 -50 190 -17 66 -39
152 -50 190 -11 39 -34 122 -51 185 -80 300 -141 488 -157 495 -8 3 -23 -1
-32 -10 -16 -14 -16 -22 2 -135 16 -106 90 -521 117 -655 5 -27 19 -97 30
-155 68 -358 114 -593 126 -650 8 -36 21 -103 30 -150 21 -106 34 -138 80
-188 34 -38 67 -65 255 -204 135 -101 200 -182 278 -349 73 -156 181 -474 267
-787 19 -70 41 -149 49 -177 24 -82 124 -494 140 -575 9 -41 25 -120 36 -175
34 -162 77 -419 99 -580 24 -176 44 -402 37 -414 -3 -4 -31 -13 -63 -20 -75
-17 -337 -92 -481 -138 l-112 -35 0 -969 c0 -839 2 -969 14 -969 8 0 50 11 93
24 851 266 1840 438 2976 518 271 19 396 22 952 22 661 0 934 -11 1424 -59
933 -92 1864 -271 2525 -486 33 -10 65 -19 73 -19 11 0 13 168 13 969 l0 968
-42 15 c-100 36 -388 120 -483 142 -44 10 -50 15 -53 39 -5 38 53 448 103 737
110 636 118 668 632 2580 8 30 23 88 34 128 10 39 28 107 40 150 12 42 27 100
34 127 7 28 22 84 33 125 12 41 115 431 231 865 116 435 213 796 216 803 10
27 -14 7 -130 -110z m-5255 -5430 c29 -21 29 -21 449 -15 376 6 420 5 425 -9
4 -10 -51 -107 -150 -267 -305 -490 -525 -848 -530 -862 -9 -23 54 -28 240
-22 202 7 282 26 333 79 31 33 103 169 103 196 0 11 8 13 32 8 17 -3 33 -8 35
-10 6 -6 -55 -338 -64 -347 -4 -4 -237 -9 -518 -11 -457 -3 -510 -1 -513 13
-2 12 179 309 353 579 12 19 87 139 165 265 78 127 151 242 161 257 36 51 34
52 -163 45 -225 -8 -277 -20 -314 -76 -14 -21 -36 -70 -49 -107 -22 -63 -26
-69 -52 -69 l-28 0 4 180 c2 99 5 183 8 188 8 14 44 7 73 -15z m1291 1 c18
-26 65 -32 474 -59 356 -23 395 -28 402 -46 2 -7 -136 -202 -309 -432 -450
-604 -477 -641 -470 -646 25 -14 181 -29 317 -30 231 -1 277 22 353 179 32 65
49 76 82 55 13 -8 10 -29 -23 -155 -56 -218 -43 -199 -136 -191 -43 3 -210 15
-372 26 -162 11 -346 25 -409 30 -63 5 -125 10 -137 10 -13 0 -24 8 -28 20 -5
14 22 56 108 167 221 288 688 915 684 919 -9 10 -349 26 -401 20 -72 -9 -111
-47 -157 -152 -32 -72 -41 -80 -73 -68 -21 8 -21 10 6 207 l23 167 26 0 c16 0
32 -8 40 -21z m-1697 -74 c9 -35 3 -42 -45 -50 -22 -4 -52 -17 -67 -30 -26
-22 -27 -27 -25 -112 1 -48 11 -191 22 -318 12 -126 26 -282 31 -345 24 -263
32 -281 129 -290 54 -5 56 -6 59 -37 3 -30 2 -32 -40 -37 -112 -14 -520 -47
-524 -43 -3 2 -6 17 -7 33 -2 25 2 29 48 42 62 18 83 35 91 77 3 18 -1 116
-10 216 -9 101 -25 288 -36 414 -32 365 -35 376 -138 385 -56 5 -57 6 -60 37
-4 37 -21 33 253 58 94 8 186 17 205 18 98 10 107 8 114 -18z m-923 -136 c143
-67 218 -225 189 -400 -32 -190 -245 -342 -457 -326 -65 5 -73 4 -73 -12 0
-33 51 -316 61 -343 17 -43 37 -53 113 -58 70 -5 71 -5 74 -35 l3 -31 -108
-17 c-462 -76 -467 -77 -475 -64 -15 24 -8 48 20 58 123 49 123 49 89 272 -72
460 -118 730 -131 761 -19 46 -51 66 -107 66 -42 0 -48 3 -53 25 -9 36 -3 42
51 49 65 9 273 42 408 66 74 13 148 18 225 17 100 -2 122 -6 171 -28z m4439 1
c0 -14 144 -799 179 -977 43 -215 60 -250 139 -284 38 -17 43 -22 40 -46 -3
-27 -5 -28 -53 -25 -51 2 -482 76 -489 83 -11 11 8 59 23 59 44 0 91 22 97 44
6 25 -33 276 -45 288 -9 10 -342 66 -357 61 -14 -5 -134 -237 -134 -258 0 -22
40 -54 82 -67 39 -12 42 -17 31 -57 -5 -20 -10 -22 -37 -18 -17 4 -98 17 -181
31 -208 36 -205 35 -205 56 0 40 11 50 55 50 87 0 116 25 214 184 104 169 390
637 466 763 54 91 72 113 93 116 52 8 82 7 82 -3z"/>
<path d="M3888 2985 c-35 -19 -42 -44 -29 -108 5 -28 21 -128 36 -222 40 -259
33 -239 85 -243 70 -5 104 6 153 48 76 67 100 166 73 304 -31 158 -110 237
-238 236 -29 -1 -65 -7 -80 -15z"/>
<path d="M8422 2561 c-56 -98 -102 -183 -102 -188 0 -9 105 -31 233 -49 36 -5
47 -3 47 7 1 31 -64 409 -70 409 -3 0 -52 -80 -108 -179z"/>
<path d="M5910 8581 c-287 -42 -547 -210 -707 -458 l-53 -83 -53 0 c-129 0
-335 -51 -481 -119 -223 -105 -433 -313 -532 -526 -73 -159 -98 -280 -93 -463
l4 -128 -84 -55 c-209 -134 -386 -371 -450 -599 -152 -549 170 -1104 753
-1295 56 -18 127 -36 159 -40 71 -9 69 -6 98 -180 24 -148 76 -405 116 -574
l26 -114 81 7 c1097 87 1750 95 2536 30 173 -15 335 -27 359 -28 l44 -1 24 90
c28 109 105 488 130 639 20 122 8 110 138 146 201 55 375 157 526 309 153 154
242 311 288 507 31 136 30 327 -4 460 -48 188 -154 366 -304 508 -48 46 -62
64 -57 80 3 12 17 62 31 111 39 130 45 311 16 451 -89 434 -442 768 -910 864
-163 33 -430 26 -572 -16 -11 -3 -28 13 -53 51 -127 192 -341 341 -581 405
-89 23 -299 35 -395 21z m1159 -1466 c48 -24 116 -112 164 -209 25 -51 48
-103 52 -117 4 -18 18 -29 54 -42 31 -11 74 -40 120 -83 64 -60 139 -150 129
-158 -1 -2 -86 -7 -187 -11 -173 -6 -183 -6 -177 11 12 31 24 98 31 171 7 70
6 75 -25 130 -41 72 -93 137 -187 231 -40 40 -73 77 -73 83 0 14 68 11 99 -6z
m-1214 -395 c182 -26 305 -80 399 -174 108 -108 140 -209 96 -301 -25 -52
-113 -142 -205 -210 -77 -57 -263 -170 -337 -206 -27 -13 -48 -27 -48 -33 0
-29 284 -489 368 -595 70 -89 79 -164 24 -217 -34 -33 -407 -203 -447 -204
-73 0 -127 68 -139 175 -11 93 -50 237 -117 432 -58 167 -84 233 -93 233 -3 0
-24 -8 -48 -19 -72 -31 -287 -99 -383 -122 -129 -31 -265 -31 -325 -1 -65 32
-85 64 -85 137 0 76 29 127 127 231 145 152 414 324 703 449 123 53 136 61 85
50 -103 -21 -401 -160 -545 -252 -218 -141 -332 -263 -391 -418 -13 -36 -24
84 -14 160 52 387 514 777 1030 869 150 27 238 31 345 16z m1777 -356 c35 -60
61 -191 54 -272 -17 -210 -169 -501 -377 -726 -40 -43 -128 -123 -196 -177
-67 -55 -148 -125 -179 -157 -138 -141 -226 -308 -255 -486 -6 -42 -16 -79
-21 -82 -15 -9 -92 72 -122 126 -39 71 -59 163 -52 232 17 143 81 254 269 466
202 226 273 321 331 440 77 158 106 291 106 486 0 179 -9 170 185 177 244 8
236 9 257 -27z"/>
<path d="M5960 6373 c-68 -11 -235 -55 -320 -83 -180 -61 -462 -191 -608 -282
-245 -153 -432 -344 -405 -414 15 -40 198 -30 368 20 131 38 303 100 317 114
5 5 2 26 -7 50 -16 39 -16 43 2 72 39 68 184 140 280 140 44 0 63 -12 103 -69
15 -21 15 -21 125 40 281 157 461 312 440 379 -3 10 -20 23 -37 29 -29 10
-204 13 -258 4z"/>
<path d="M1965 2509 c-22 -5 -103 -20 -180 -34 -478 -89 -947 -197 -1480 -342
-132 -36 -250 -68 -262 -70 -13 -3 -23 -8 -23 -12 0 -4 33 -26 73 -49 150 -87
632 -385 852 -527 72 -46 158 -101 192 -122 35 -21 63 -42 63 -47 0 -9 -124
-145 -300 -330 -58 -61 -154 -162 -215 -226 -278 -292 -636 -686 -656 -722 -8
-16 -7 -17 16 -8 14 5 60 19 103 30 42 11 109 29 147 40 111 32 566 146 735
185 450 104 963 203 1428 276 78 12 142 25 142 28 0 4 -66 58 -146 121 -80 63
-203 160 -272 215 l-127 101 -3 752 -2 752 -23 -1 c-12 -1 -40 -5 -62 -10z"/>
<path d="M10399 1768 l0 -753 -62 -50 c-33 -27 -120 -95 -191 -149 -72 -54
-169 -131 -216 -170 l-84 -71 39 -7 c22 -3 141 -23 265 -43 348 -56 765 -135
985 -185 22 -5 114 -26 205 -46 270 -59 981 -242 1065 -274 14 -5 25 -6 25 -1
0 5 -75 94 -167 198 -169 189 -209 232 -513 553 -305 322 -458 485 -479 512
l-21 26 162 105 c214 138 630 396 846 526 94 57 172 107 172 110 0 4 -46 20
-102 36 -57 15 -132 37 -168 47 -220 62 -693 176 -1060 257 -194 42 -660 131
-690 131 -7 0 -10 -235 -11 -752z"/>
</g>
</svg>
